<svg xmlns="http://www.w3.org/2000/svg" viewBox="0 0 1024 1024" role="img" aria-labelledby="title">
  <title id="title">Bouquet Studio</title>
  <g fill="#ffffff" stroke="#111111" stroke-linecap="round" stroke-linejoin="round">
    <path
      stroke-width="44"
      d="M286 514c-66-82-40-184 54-236 43-24 90-32 134-26 33-58 108-82 172-55 40 17 65 51 71 87 73 3 133 53 144 118 10 58-22 112-76 138-95 47-183 90-277 134-91-28-165-81-222-160Z"
    />
    <g fill="none" stroke-width="38">
      <path d="M310 470c110 23 190-18 238-104 48 36 106 25 169-82"/>
      <path d="M508 674c-10-125 43-225 182-291-40 96-9 154 95 157"/>
      <path d="M340 278c58 30 106 21 134-26"/>
      <path d="M390 375c42-75 105-119 184-132"/>
      <path d="M508 674c-34 74-57 144-68 211"/>
    </g>
    <path d="M511 657c-64 7-114-13-153-60 70-11 121-1 160 32Z" stroke-width="38"/>
    <path d="M511 657c-8 65 7 118 46 160 5-73-10-126-46-160Z" stroke-width="38"/>
  </g>
</svg>
